<svg width="20" height="20" viewBox="0 0 20 20" fill="none" xmlns="http://www.w3.org/2000/svg">
<mask id="mask0_226_558" style="mask-type:alpha" maskUnits="userSpaceOnUse" x="0" y="0" width="20" height="20">
<rect width="20" height="20" fill="#D9D9D9"/>
</mask>
<g mask="url(#mask0_226_558)">
<path d="M10.201 11.2454L6.20558 15.604C6.02693 15.7989 5.82391 15.8919 5.59653 15.8831C5.36915 15.8742 5.16614 15.7724 4.98748 15.5775C4.80883 15.3826 4.7195 15.1567 4.7195 14.8997C4.7195 14.6428 4.80883 14.4169 4.98748 14.222L8.9585 9.89002L4.96312 5.53143C4.78446 5.33653 4.6992 5.11063 4.70732 4.85372C4.71544 4.59681 4.80883 4.37091 4.98748 4.17601C5.16614 3.98112 5.37321 3.88367 5.60871 3.88367C5.84421 3.88367 6.05129 3.98112 6.22995 4.17601L10.201 8.53461L14.1963 4.17601C14.375 3.98112 14.5821 3.88367 14.8176 3.88367C15.0531 3.88367 15.2601 3.98112 15.4388 4.17601C15.6175 4.37091 15.7068 4.59681 15.7068 4.85372C15.7068 5.11063 15.6175 5.33653 15.4388 5.53143L11.4434 9.89002L15.4388 14.2486C15.6175 14.4435 15.7068 14.665 15.7068 14.913C15.7068 15.1611 15.6175 15.3826 15.4388 15.5775C15.2601 15.7724 15.0531 15.8698 14.8176 15.8698C14.5821 15.8698 14.375 15.7724 14.1963 15.5775L10.201 11.2454Z" fill="#454545"/>
</g>
</svg>
