<svg width="30" height="30" viewBox="0 0 30 30" fill="none" xmlns="http://www.w3.org/2000/svg">
<g filter="url(#filter0_i_36_1802)">
<path fill-rule="evenodd" clip-rule="evenodd" d="M22.7796 28.9928C22.5552 28.9937 22.3339 28.9382 22.1342 28.8307L14.979 24.8979L7.82368 28.8307C7.34966 29.0924 6.77508 29.048 6.34272 28.7161C5.91037 28.3843 5.69567 27.823 5.78934 27.2694L7.19234 18.9765L1.412 13.0845C1.04449 12.6995 0.909563 12.1329 1.06125 11.6115C1.22714 11.0775 1.66794 10.689 2.19767 10.6099L10.1947 9.38734L13.7163 1.83093C13.9507 1.32276 14.4412 1 14.979 1C15.5168 1 16.0072 1.32276 16.2417 1.83093L19.8053 9.37261L27.8023 10.5952C28.3321 10.6742 28.7729 11.0627 28.9388 11.5968C29.0904 12.1181 28.9555 12.6848 28.588 13.0698L22.8077 18.9617L24.2107 27.2546C24.3129 27.8185 24.0939 28.3934 23.6495 28.7276C23.3954 28.9145 23.0895 29.0078 22.7796 28.9928Z" fill="#EEC400"/>
</g>
<path d="M22.1342 28.8307L21.8934 29.2689L21.8974 29.2711L22.1342 28.8307ZM14.979 24.8979L15.2198 24.4597L14.979 24.3273L14.7381 24.4597L14.979 24.8979ZM7.82368 28.8307L7.58284 28.3926L7.58203 28.393L7.82368 28.8307ZM5.78934 27.2694L6.28233 27.3528L6.28234 27.3528L5.78934 27.2694ZM7.19234 18.9765L7.68533 19.0599L7.72788 18.8084L7.54925 18.6263L7.19234 18.9765ZM1.412 13.0845L1.05027 13.4298L1.05508 13.4347L1.412 13.0845ZM1.06125 11.6115L0.583677 11.4632L0.581159 11.4719L1.06125 11.6115ZM2.19767 10.6099L2.27147 11.1044L2.27324 11.1042L2.19767 10.6099ZM10.1947 9.38734L10.2703 9.8816L10.5349 9.84115L10.6479 9.59854L10.1947 9.38734ZM13.7163 1.83093L14.1695 2.04213L14.1703 2.04037L13.7163 1.83093ZM16.2417 1.83093L15.7876 2.04038L15.7896 2.04454L16.2417 1.83093ZM19.8053 9.37261L19.3532 9.58622L19.4668 9.82668L19.7297 9.86687L19.8053 9.37261ZM27.8023 10.5952L27.7268 11.0894L27.7285 11.0897L27.8023 10.5952ZM28.9388 11.5968L29.4189 11.4571L29.4162 11.4485L28.9388 11.5968ZM28.588 13.0698L28.945 13.42L28.9497 13.415L28.588 13.0698ZM22.8077 18.9617L22.4507 18.6116L22.2721 18.7937L22.3147 19.0451L22.8077 18.9617ZM24.2107 27.2546L23.7176 27.3381L23.7187 27.3439L24.2107 27.2546ZM23.6495 28.7276L23.9458 29.1304L23.95 29.1272L23.6495 28.7276ZM22.7775 28.4928C22.6374 28.4934 22.4982 28.4587 22.3711 28.3904L21.8974 29.2711C22.1697 29.4176 22.473 29.4941 22.7817 29.4928L22.7775 28.4928ZM22.3751 28.3926L15.2198 24.4597L14.7381 25.336L21.8934 29.2689L22.3751 28.3926ZM14.7381 24.4597L7.58284 28.3926L8.06452 29.2689L15.2198 25.336L14.7381 24.4597ZM7.58203 28.393C7.28351 28.5578 6.92318 28.5313 6.64715 28.3195L6.0383 29.1128C6.62698 29.5646 7.41581 29.627 8.06534 29.2685L7.58203 28.393ZM6.64715 28.3195C6.36719 28.1046 6.21838 27.7307 6.28233 27.3528L5.29635 27.186C5.17295 27.9152 5.45355 28.664 6.0383 29.1128L6.64715 28.3195ZM6.28234 27.3528L7.68533 19.0599L6.69934 18.8931L5.29635 27.186L6.28234 27.3528ZM7.54925 18.6263L1.76891 12.7344L1.05508 13.4347L6.83542 19.3266L7.54925 18.6263ZM1.77369 12.7393C1.5323 12.4864 1.43823 12.1056 1.54134 11.7512L0.581159 11.4719C0.380896 12.1601 0.556684 12.9126 1.05031 13.4298L1.77369 12.7393ZM1.53874 11.7599C1.65089 11.3988 1.94204 11.1536 2.27147 11.1044L2.12388 10.1154C1.39383 10.2243 0.803397 10.7561 0.583754 11.4632L1.53874 11.7599ZM2.27324 11.1042L10.2703 9.8816L10.1192 8.89308L2.12211 10.1157L2.27324 11.1042ZM10.6479 9.59854L14.1695 2.04213L13.2631 1.61972L9.74154 9.17613L10.6479 9.59854ZM14.1703 2.04037C14.3273 1.70009 14.6462 1.5 14.979 1.5V0.5C14.2361 0.5 13.5741 0.945435 13.2622 1.62148L14.1703 2.04037ZM14.979 1.5C15.3117 1.5 15.6307 1.70009 15.7876 2.04037L16.6957 1.62148C16.3838 0.945435 15.7218 0.5 14.979 0.5V1.5ZM15.7896 2.04454L19.3532 9.58622L20.2573 9.15899L16.6937 1.61731L15.7896 2.04454ZM19.7297 9.86687L27.7268 11.0894L27.8779 10.1009L19.8808 8.87835L19.7297 9.86687ZM27.7285 11.0897C28.058 11.1389 28.3491 11.3841 28.4613 11.7451L29.4162 11.4485C29.1966 10.7414 28.6062 10.2096 27.8761 10.1007L27.7285 11.0897ZM28.4587 11.7365C28.5618 12.0909 28.4677 12.4717 28.2263 12.7246L28.9497 13.415C29.4433 12.8979 29.6191 12.1454 29.4188 11.4571L28.4587 11.7365ZM28.2311 12.7196L22.4507 18.6116L23.1646 19.3119L28.9449 13.42L28.2311 12.7196ZM22.3147 19.0451L23.7177 27.338L24.7037 27.1712L23.3007 18.8783L22.3147 19.0451ZM23.7187 27.3439C23.7885 27.7289 23.6365 28.1117 23.3489 28.328L23.95 29.1272C24.5513 28.675 24.8373 27.9081 24.7026 27.1654L23.7187 27.3439ZM23.3532 28.3249C23.19 28.4449 22.9969 28.5027 22.8038 28.4934L22.7554 29.4922C23.1821 29.5129 23.6008 29.3842 23.9458 29.1304L23.3532 28.3249Z" fill="#B8B9BE"/>
<defs>
<filter id="filter0_i_36_1802" x="0.5" y="0.5" width="29" height="30" filterUnits="userSpaceOnUse" color-interpolation-filters="sRGB">
<feFlood flood-opacity="0" result="BackgroundImageFix"/>
<feBlend mode="normal" in="SourceGraphic" in2="BackgroundImageFix" result="shape"/>
<feColorMatrix in="SourceAlpha" type="matrix" values="0 0 0 0 0 0 0 0 0 0 0 0 0 0 0 0 0 0 127 0" result="hardAlpha"/>
<feOffset dy="1"/>
<feGaussianBlur stdDeviation="1"/>
<feComposite in2="hardAlpha" operator="arithmetic" k2="-1" k3="1"/>
<feColorMatrix type="matrix" values="0 0 0 0 0.335 0 0 0 0 0.335 0 0 0 0 0.335 0 0 0 0.25 0"/>
<feBlend mode="normal" in2="shape" result="effect1_innerShadow_36_1802"/>
</filter>
</defs>
</svg>
