<svg width="24" height="25" viewBox="0 0 24 25" fill="none" xmlns="http://www.w3.org/2000/svg">
<path fill-rule="evenodd" clip-rule="evenodd" d="M12 2.84326C17.523 2.84326 22 7.32026 22 12.8433C22 18.3663 17.523 22.8433 12 22.8433C6.477 22.8433 2 18.3663 2 12.8433C2 7.32026 6.477 2.84326 12 2.84326ZM13.482 17.7833C12.4957 17.8647 11.5043 17.8647 10.518 17.7833C10.6113 18.1806 10.7147 18.5479 10.828 18.8853C11.079 19.6403 11.358 20.1783 11.618 20.5073C11.745 20.6693 11.848 20.7553 11.918 20.7973L11.969 20.8253L11.999 20.8333L12.031 20.8253L12.082 20.7983C12.1982 20.7199 12.2997 20.6217 12.382 20.5083C12.642 20.1783 12.921 19.6403 13.172 18.8853C13.2853 18.5479 13.3887 18.1806 13.482 17.7833ZM4.807 16.3483C5.71545 18.2071 7.30634 19.6436 9.248 20.3583C9.13061 20.0827 9.02452 19.8025 8.93 19.5183C8.71237 18.8527 8.53866 18.1736 8.41 17.4853C7.17244 17.2337 5.96479 16.8526 4.807 16.3483ZM19.194 16.3483C18.049 16.8483 16.843 17.2313 15.589 17.4853C15.4604 18.1739 15.2867 18.8534 15.069 19.5193C14.973 19.8106 14.867 20.0899 14.751 20.3573C16.6934 19.6431 18.2851 18.2065 19.194 16.3473V16.3483ZM13.976 11.7143C12.6644 11.8886 11.3356 11.8886 10.024 11.7143C9.96686 13.0576 10.014 14.4033 10.165 15.7393C11.3844 15.8783 12.6156 15.8783 13.835 15.7393C13.946 14.7779 14.0011 13.811 14 12.8433C14 12.4593 13.992 12.0826 13.976 11.7133V11.7143ZM4.568 9.87526C4.07998 11.0982 3.90136 12.4227 4.048 13.7313C5.32213 14.461 6.69064 15.0118 8.115 15.3683C7.99244 14.0208 7.96771 12.6663 8.041 11.3153C6.82752 10.9828 5.66069 10.499 4.568 9.87526ZM19.432 9.87526C18.3393 10.499 17.1725 10.9828 15.959 11.3153C16.0323 12.6663 16.0076 14.0208 15.885 15.3683C17.309 15.0117 18.6772 14.4609 19.951 13.7313C20.0975 12.423 19.9189 11.0989 19.431 9.87626L19.432 9.87526ZM12.016 4.85526L12.005 4.85326L11.985 4.85626L11.947 4.87126C11.8186 4.95183 11.7066 5.056 11.617 5.17826C11.357 5.50826 11.079 6.04626 10.827 6.80026C10.557 7.60826 10.339 8.60026 10.194 9.71926C11.3921 9.88734 12.6079 9.88734 13.806 9.71926C13.661 8.59926 13.442 7.60826 13.173 6.80026C12.921 6.04626 12.643 5.50726 12.383 5.17826C12.3007 5.06482 12.1992 4.96667 12.083 4.88826L12.016 4.85526ZM9.248 5.32926C7.76186 5.87404 6.47074 6.84744 5.538 8.12626C6.381 8.61026 7.284 9.00226 8.233 9.28926C8.393 8.12526 8.63 7.06626 8.93 6.16726C9.02667 5.87526 9.13267 5.59593 9.248 5.32926ZM14.752 5.32926C14.8667 5.59593 14.9727 5.87526 15.07 6.16726C15.37 7.06726 15.607 8.12526 15.767 9.28926C16.7064 9.00458 17.6105 8.61443 18.462 8.12626C17.5293 6.84744 16.2381 5.87404 14.752 5.32926Z" fill="white"/>
</svg>
