<svg width="24" height="25" viewBox="0 0 24 25" fill="none" xmlns="http://www.w3.org/2000/svg">
<path d="M12.0007 18.0537L7.6126 21.4041C7.39518 21.582 7.15798 21.6662 6.90102 21.6567C6.64406 21.6472 6.41675 21.5729 6.21909 21.4337C6.02143 21.2946 5.86844 21.1068 5.76012 20.8704C5.6518 20.634 5.64666 20.377 5.7447 20.0995L7.43471 14.6144L3.13556 11.5605C2.89837 11.4024 2.75012 11.1948 2.69082 10.9379C2.63152 10.6809 2.64141 10.4437 2.72047 10.2263C2.79954 10.0089 2.9379 9.81596 3.13556 9.64755C3.33322 9.47914 3.57042 9.39533 3.84714 9.39613H9.15437L10.874 3.70346C10.9729 3.42674 11.1262 3.21405 11.3342 3.06541C11.5421 2.91677 11.7643 2.84284 12.0007 2.84363C12.2371 2.84442 12.4597 2.91875 12.6684 3.0666C12.8771 3.21445 13.0301 3.42674 13.1274 3.70346L14.847 9.39613H20.1543C20.431 9.39613 20.6682 9.48033 20.8658 9.64874C21.0635 9.81715 21.2019 10.0097 21.2809 10.2263C21.36 10.4429 21.3699 10.6801 21.3106 10.9379C21.2513 11.1956 21.103 11.4032 20.8658 11.5605L16.5667 14.6144L18.2567 20.0995C18.3555 20.3762 18.3508 20.6332 18.2425 20.8704C18.1341 21.1076 17.9808 21.2954 17.7823 21.4337C17.5839 21.5721 17.3565 21.6464 17.1004 21.6567C16.8442 21.667 16.607 21.5828 16.3888 21.4041L12.0007 18.0537Z" fill="white"/>
</svg>
