<svg width="24" height="25" viewBox="0 0 24 25" fill="none" xmlns="http://www.w3.org/2000/svg">
<path d="M14.5 7.34338L9.5 10.8434M14.5 18.3434L9.5 14.8434M9.5 12.8434C9.5 13.5064 9.23661 14.1423 8.76777 14.6112C8.29893 15.08 7.66304 15.3434 7 15.3434C6.33696 15.3434 5.70107 15.08 5.23223 14.6112C4.76339 14.1423 4.5 13.5064 4.5 12.8434C4.5 12.1803 4.76339 11.5445 5.23223 11.0756C5.70107 10.6068 6.33696 10.3434 7 10.3434C7.66304 10.3434 8.29893 10.6068 8.76777 11.0756C9.23661 11.5445 9.5 12.1803 9.5 12.8434ZM19.5 19.3434C19.5 20.0064 19.2366 20.6423 18.7678 21.1112C18.2989 21.58 17.663 21.8434 17 21.8434C16.337 21.8434 15.7011 21.58 15.2322 21.1112C14.7634 20.6423 14.5 20.0064 14.5 19.3434C14.5 18.6803 14.7634 18.0445 15.2322 17.5756C15.7011 17.1068 16.337 16.8434 17 16.8434C17.663 16.8434 18.2989 17.1068 18.7678 17.5756C19.2366 18.0445 19.5 18.6803 19.5 19.3434ZM19.5 6.34338C19.5 7.00643 19.2366 7.64231 18.7678 8.11115C18.2989 8.57999 17.663 8.84338 17 8.84338C16.337 8.84338 15.7011 8.57999 15.2322 8.11115C14.7634 7.64231 14.5 7.00643 14.5 6.34338C14.5 5.68034 14.7634 5.04446 15.2322 4.57562C15.7011 4.10678 16.337 3.84338 17 3.84338C17.663 3.84338 18.2989 4.10678 18.7678 4.57562C19.2366 5.04446 19.5 5.68034 19.5 6.34338Z" stroke="white" stroke-width="1.5" stroke-linecap="round" stroke-linejoin="round"/>
</svg>
