<svg width="24" height="25" viewBox="0 0 24 25" fill="none" xmlns="http://www.w3.org/2000/svg">
<path d="M11.9999 17.845C12.2832 17.845 12.5209 17.749 12.7129 17.557C12.9049 17.365 13.0006 17.1277 12.9999 16.845V12.845C12.9999 12.5617 12.9039 12.3243 12.7119 12.133C12.5199 11.9417 12.2826 11.8457 11.9999 11.845C11.7172 11.8443 11.4799 11.9403 11.2879 12.133C11.0959 12.3257 10.9999 12.563 10.9999 12.845V16.845C10.9999 17.1283 11.0959 17.366 11.2879 17.558C11.4799 17.75 11.7172 17.8457 11.9999 17.845ZM11.9999 9.845C12.2832 9.845 12.5209 9.74899 12.7129 9.55699C12.9049 9.365 13.0006 9.12766 12.9999 8.845C12.9992 8.56233 12.9032 8.325 12.7119 8.133C12.5206 7.941 12.2832 7.845 11.9999 7.845C11.7166 7.845 11.4792 7.941 11.2879 8.133C11.0966 8.325 11.0006 8.56233 10.9999 8.845C10.9992 9.12766 11.0952 9.36533 11.2879 9.558C11.4806 9.75066 11.7179 9.84633 11.9999 9.845ZM11.9999 22.745C11.8832 22.745 11.7749 22.7367 11.6749 22.72C11.5749 22.7033 11.4749 22.6783 11.3749 22.645C9.1249 21.895 7.33323 20.5073 5.9999 18.482C4.66657 16.4567 3.9999 14.2777 3.9999 11.945V7.22C3.9999 6.80333 4.1209 6.42833 4.3629 6.095C4.6049 5.76166 4.91723 5.52 5.2999 5.37L11.2999 3.12C11.5332 3.03666 11.7666 2.995 11.9999 2.995C12.2332 2.995 12.4666 3.03666 12.6999 3.12L18.6999 5.37C19.0832 5.52 19.3959 5.76166 19.6379 6.095C19.8799 6.42833 20.0006 6.80333 19.9999 7.22V11.945C19.9999 14.2783 19.3332 16.4577 17.9999 18.483C16.6666 20.5083 14.8749 21.8957 12.6249 22.645C12.5249 22.6783 12.4249 22.7033 12.3249 22.72C12.2249 22.7367 12.1166 22.745 11.9999 22.745Z" fill="white"/>
</svg>
